HIERARCHY
ROOT root
{
	OFFSET	0	13.1	24.9
	CHANNELS 6  Xposition Yposition Zposition Xrotation Yrotation Zrotation
	JOINT spine_1
	{
		OFFSET	0	9.99999	0
		CHANNELS 3  Xrotation Yrotation Zrotation
		JOINT spine_2
		{
			OFFSET	0	112	-10
			CHANNELS 3  Xrotation Yrotation Zrotation
			JOINT spine_3
			{
				OFFSET	0	206.5	19.3
				CHANNELS 3  Xrotation Yrotation Zrotation
				JOINT spine_4
				{
					OFFSET	0	110.4	14.6
					CHANNELS 3  Xrotation Yrotation Zrotation
					JOINT neck_1
					{
						OFFSET	0	71.8	-50.3
						CHANNELS 3  Xrotation Yrotation Zrotation
						JOINT neck_2
						{
							OFFSET	0	86.2	-25.8
							CHANNELS 3  Xrotation Yrotation Zrotation
							JOINT head_ee
							{
								OFFSET	0	179.8	-8.7
								CHANNELS 3  Xrotation Yrotation Zrotation
								End Site
								{
									OFFSET	1	0	0
								}
							}
						}
					}
					JOINT left_clavicle
					{
						OFFSET	-43.2	22.4	-70.8
						CHANNELS 3  Xrotation Yrotation Zrotation
						JOINT left_shoulder
						{
							OFFSET	-93.9	-5.79999	48.7
							CHANNELS 3  Xrotation Yrotation Zrotation
							JOINT left_elbow
							{
								OFFSET	-291.4	-30.8	15.2
								CHANNELS 3  Xrotation Yrotation Zrotation
								JOINT left_lowarm_twist
								{
									OFFSET	-110.7	-3.89999	13.6
									CHANNELS 3  Xrotation Yrotation Zrotation
									JOINT left_hand
									{
										OFFSET	-110.7	-3.89999	13.6
										CHANNELS 3  Xrotation Yrotation Zrotation
										JOINT left_ee
										{
											OFFSET	-80.8	-5.10001	12.1
											CHANNELS 3  Xrotation Yrotation Zrotation
											End Site
											{
												OFFSET	1	0	0
											}
										}
									}
								}
							}
						}
					}
					JOINT right_clavicle
					{
						OFFSET	43.2	22.4	-70.8
						CHANNELS 3  Xrotation Yrotation Zrotation
						JOINT right_shoulder
						{
							OFFSET	93.9	-5.79999	48.7
							CHANNELS 3  Xrotation Yrotation Zrotation
							JOINT right_elbow
							{
								OFFSET	291.4	-30.8	15.2
								CHANNELS 3  Xrotation Yrotation Zrotation
								JOINT right_lowarm_twist
								{
									OFFSET	110.7	-3.89999	13.6
									CHANNELS 3  Xrotation Yrotation Zrotation
									JOINT right_hand
									{
										OFFSET	110.7	-3.89999	13.6
										CHANNELS 3  Xrotation Yrotation Zrotation
										JOINT right_ee
										{
											OFFSET	80.8	-5.10001	12.1
											CHANNELS 3  Xrotation Yrotation Zrotation
											End Site
											{
												OFFSET	1	0	0
											}
										}
									}
								}
							}
						}
					}
				}
			}
		}
	}
	JOINT left_hip
	{
		OFFSET	-82.8	-127.5	0.300001
		CHANNELS 3  Xrotation Yrotation Zrotation
		JOINT left_knee
		{
			OFFSET	-28.2	-396.7	2.2
			CHANNELS 3  Xrotation Yrotation Zrotation
			JOINT left_ankle
			{
				OFFSET	-11.7	-411.3	35.4
				CHANNELS 3  Xrotation Yrotation Zrotation
				JOINT left_toes
				{
					OFFSET	0	-60	-88.6
					CHANNELS 3  Xrotation Yrotation Zrotation
					JOINT left_foot_ee
					{
						OFFSET	-22.5	-16.5	-42.2
						CHANNELS 3  Xrotation Yrotation Zrotation
						End Site
						{
							OFFSET	1	0	0
						}
					}
				}
			}
		}
	}
	JOINT right_hip
	{
		OFFSET	82.8	-127.5	0.300001
		CHANNELS 3  Xrotation Yrotation Zrotation
		JOINT right_knee
		{
			OFFSET	28.2	-396.7	2.2
			CHANNELS 3  Xrotation Yrotation Zrotation
			JOINT right_ankle
			{
				OFFSET	11.7	-411.3	35.4
				CHANNELS 3  Xrotation Yrotation Zrotation
				JOINT right_toes
				{
					OFFSET	0	-60	-88.6
					CHANNELS 3  Xrotation Yrotation Zrotation
					JOINT right_foot_ee
					{
						OFFSET	22.5	-16.5	-42.2
						CHANNELS 3  Xrotation Yrotation Zrotation
						End Site
						{
							OFFSET	1	0	0
						}
					}
				}
			}
		}
	}
}
MOTION
Frames: 13
Frame Time: 0.02
3574.42 741.953 -1474.73 -0.13296546722 73.332362892 2.68271749952 -0.877815 0.116095 -0.645766 -0.877597 0.156951 -0.63707 -0.879262 0.296373 -0.585369 -0.879685 0.200207 -0.624828 -19.0248 4.91774 7.20838 -18.9166 5.69073 8.66157 -0.0 0.0 -0.0 7.67915 24.7339 13.2706 -15.5805 -28.5276 61.1824 3.16489 -57.4562 1.73505 -25.5764 -1.56351 2.84462 -2.43997 27.2887 -2.69007 -0.0 0.0 -0.0 10.9068 0.361663 -21.5644 -33.3315 34.5758 -51.9515 0.474518 13.2281 -0.055022 -38.6803 2.81192 -3.96427 7.31662 -25.0041 -70.0268 0.0 0.0 0.0 -7.06935 5.44924 -4.96496 -0.547632 0.022162 0.0811179 27.0251 0.238855 -3.58276 -24.3591 0.0 0.0 -0.0 0.0 -0.0 0.920096 -4.34631 0.239555 3.9607 0.183247 0.579953 18.9851 30.1394 3.2727 -36.8158 0.0 0.0 0.0 0.0 0.0 
3574.42 741.953 -1474.73 -0.13022788706 72.9714125906 2.6798571569 -0.877815 0.116095 -0.645766 -0.877597 0.156951 -0.63707 -0.879262 0.296373 -0.585369 -0.879685 0.200207 -0.624828 -19.0248 4.91774 7.20838 -18.9166 5.69073 8.66157 -0.0 0.0 -0.0 7.67915 24.7339 13.2706 -15.5805 -28.5276 61.1824 3.16489 -57.4562 1.73505 -25.5764 -1.56351 2.84462 -2.43997 27.2887 -2.69007 -0.0 0.0 -0.0 10.9068 0.361663 -21.5644 -33.3315 34.5758 -51.9515 0.474518 13.2281 -0.055022 -38.6803 2.81192 -3.96427 7.31662 -25.0041 -70.0268 0.0 0.0 0.0 -7.06935 5.44924 -4.96496 -0.547632 0.022162 0.0811179 27.0251 0.238855 -3.58276 -24.3591 0.0 0.0 -0.0 0.0 -0.0 0.920096 -4.34631 0.239555 3.9607 0.183247 0.579953 18.9851 30.1394 3.2727 -36.8158 0.0 0.0 0.0 0.0 0.0 
3574.42 741.953 -1474.73 -0.127507555298 72.596647064 2.6770092414 -0.877815 0.116095 -0.645766 -0.877597 0.156951 -0.63707 -0.879262 0.296373 -0.585369 -0.879685 0.200207 -0.624828 -19.0248 4.91774 7.20838 -18.9166 5.69073 8.66157 -0.0 0.0 -0.0 7.67915 24.7339 13.2706 -15.5805 -28.5276 61.1824 3.16489 -57.4562 1.73505 -25.5764 -1.56351 2.84462 -2.43997 27.2887 -2.69007 -0.0 0.0 -0.0 10.9068 0.361663 -21.5644 -33.3315 34.5758 -51.9515 0.474518 13.2281 -0.055022 -38.6803 2.81192 -3.96427 7.31662 -25.0041 -70.0268 0.0 0.0 0.0 -7.06935 5.44924 -4.96496 -0.547632 0.022162 0.0811179 27.0251 0.238855 -3.58276 -24.3591 0.0 0.0 -0.0 0.0 -0.0 0.920096 -4.34631 0.239555 3.9607 0.183247 0.579953 18.9851 30.1394 3.2727 -36.8158 0.0 0.0 0.0 0.0 0.0 
3574.42 741.953 -1474.73 -0.122830905837 71.9115757878 2.67209903654 -0.877815 0.116095 -0.645766 -0.877597 0.156951 -0.63707 -0.879262 0.296373 -0.585369 -0.879685 0.200207 -0.624828 -19.0248 4.91774 7.20838 -18.9166 5.69073 8.66157 -0.0 0.0 -0.0 7.67915 24.7339 13.2706 -15.5805 -28.5276 61.1824 3.16489 -57.4562 1.73505 -25.5764 -1.56351 2.84462 -2.43997 27.2887 -2.69007 -0.0 0.0 -0.0 10.9068 0.361663 -21.5644 -33.3315 34.5758 -51.9515 0.474518 13.2281 -0.055022 -38.6803 2.81192 -3.96427 7.31662 -25.0041 -70.0268 0.0 0.0 0.0 -7.06935 5.44924 -4.96496 -0.547632 0.022162 0.0811179 27.0251 0.238855 -3.58276 -24.3591 0.0 0.0 -0.0 0.0 -0.0 0.920096 -4.34631 0.239555 3.9607 0.183247 0.579953 18.9851 30.1394 3.2727 -36.8158 0.0 0.0 0.0 0.0 0.0 
3574.42 741.953 -1474.73 -0.119053102588 71.3167124651 2.66811807147 -0.877815 0.116095 -0.645766 -0.877597 0.156951 -0.63707 -0.879262 0.296373 -0.585369 -0.879685 0.200207 -0.624828 -19.0248 4.91774 7.20838 -18.9166 5.69073 8.66157 -0.0 0.0 -0.0 7.67915 24.7339 13.2706 -15.5805 -28.5276 61.1824 3.16489 -57.4562 1.73505 -25.5764 -1.56351 2.84462 -2.43997 27.2887 -2.69007 -0.0 0.0 -0.0 10.9068 0.361663 -21.5644 -33.3315 34.5758 -51.9515 0.474518 13.2281 -0.055022 -38.6803 2.81192 -3.96427 7.31662 -25.0041 -70.0268 0.0 0.0 0.0 -7.06935 5.44924 -4.96496 -0.547632 0.022162 0.0811179 27.0251 0.238855 -3.58276 -24.3591 0.0 0.0 -0.0 0.0 -0.0 0.920096 -4.34631 0.239555 3.9607 0.183247 0.579953 18.9851 30.1394 3.2727 -36.8158 0.0 0.0 0.0 0.0 0.0 
3574.42 741.953 -1474.73 -0.114431530938 70.5323742639 2.66322809452 -0.877815 0.116095 -0.645766 -0.877597 0.156951 -0.63707 -0.879262 0.296373 -0.585369 -0.879685 0.200207 -0.624828 -19.0248 4.91774 7.20838 -18.9166 5.69073 8.66157 -0.0 0.0 -0.0 7.67915 24.7339 13.2706 -15.5805 -28.5276 61.1824 3.16489 -57.4562 1.73505 -25.5764 -1.56351 2.84462 -2.43997 27.2887 -2.69007 -0.0 0.0 -0.0 10.9068 0.361663 -21.5644 -33.3315 34.5758 -51.9515 0.474518 13.2281 -0.055022 -38.6803 2.81192 -3.96427 7.31662 -25.0041 -70.0268 0.0 0.0 0.0 -7.06935 5.44924 -4.96496 -0.547632 0.022162 0.0811179 27.0251 0.238855 -3.58276 -24.3591 0.0 0.0 -0.0 0.0 -0.0 0.920096 -4.34631 0.239555 3.9607 0.183247 0.579953 18.9851 30.1394 3.2727 -36.8158 0.0 0.0 0.0 0.0 0.0 
3574.42 741.953 -1474.73 -0.109898251062 69.6947462275 2.6584074758 -0.877815 0.116095 -0.645766 -0.877597 0.156951 -0.63707 -0.879262 0.296373 -0.585369 -0.879685 0.200207 -0.624828 -19.0248 4.91774 7.20838 -18.9166 5.69073 8.66157 -0.0 0.0 -0.0 7.67915 24.7339 13.2706 -15.5805 -28.5276 61.1824 3.16489 -57.4562 1.73505 -25.5764 -1.56351 2.84462 -2.43997 27.2887 -2.69007 -0.0 0.0 -0.0 10.9068 0.361663 -21.5644 -33.3315 34.5758 -51.9515 0.474518 13.2281 -0.055022 -38.6803 2.81192 -3.96427 7.31662 -25.0041 -70.0268 0.0 0.0 0.0 -7.06935 5.44924 -4.96496 -0.547632 0.022162 0.0811179 27.0251 0.238855 -3.58276 -24.3591 0.0 0.0 -0.0 0.0 -0.0 0.920096 -4.34631 0.239555 3.9607 0.183247 0.579953 18.9851 30.1394 3.2727 -36.8158 0.0 0.0 0.0 0.0 0.0 
3570.44194564 740.512 -1476.79607926 0.883803650951 69.5367059851 1.55930370581 -0.903376 0.158526 -0.617501 -0.903186 0.197497 -0.606162 -0.905227 0.329166 -0.545976 -0.905563 0.23881 -0.591108 -19.1772 4.77438 7.05139 -19.0734 5.51704 8.46945 -0.0 0.0 -0.0 7.55009 25.6189 12.983 -16.2522 -29.2895 61.1007 3.23084 -57.9892 1.79082 -25.741 -1.57753 2.86038 -2.4276 27.1413 -2.69804 -0.0 0.0 -0.0 10.9374 1.06509 -21.6701 -33.5251 34.6718 -51.3061 0.45172 12.6134 -0.0499241 -38.8212 2.82668 -3.97472 7.32892 -25.0584 -70.2873 0.0 0.0 0.0 -7.07317 5.41052 -5.04013 -0.874051 0.0350018 0.129566 25.4778 -0.600906 -3.41273 -25.2046 0.0 0.0 -0.0 0.0 -0.0 0.375046 -4.08937 0.496211 3.60958 0.165384 0.529056 18.4985 30.2116 3.20065 -37.5544 0.0 0.0 0.0 0.0 0.0 
3570.50752143 740.512 -1476.91771831 0.816728373849 67.770516947 1.63131093986 -0.903376 0.158526 -0.617501 -0.903186 0.197497 -0.606162 -0.905227 0.329166 -0.545976 -0.905563 0.23881 -0.591108 -19.1772 4.77438 7.05139 -19.0734 5.51704 8.46945 -0.0 0.0 -0.0 7.55009 25.6189 12.983 -16.2522 -29.2895 61.1007 3.23084 -57.9892 1.79082 -25.741 -1.57753 2.86038 -2.4276 27.1413 -2.69804 -0.0 0.0 -0.0 10.9374 1.06509 -21.6701 -33.5251 34.6718 -51.3061 0.45172 12.6134 -0.0499241 -38.8212 2.82668 -3.97472 7.32892 -25.0584 -70.2873 0.0 0.0 0.0 -7.07317 5.41052 -5.04013 -0.874051 0.0350018 0.129566 25.4778 -0.600906 -3.41273 -25.2046 0.0 0.0 -0.0 0.0 -0.0 0.375046 -4.08937 0.496211 3.60958 0.165384 0.529056 18.4985 30.2116 3.20065 -37.5544 0.0 0.0 0.0 0.0 0.0 
3554.28060028 742.02 -1495.26578776 4.40055021273 69.1324257519 -2.92355154328 -1.1226 0.317712 -0.453035 -1.12255 0.345895 -0.431901 -1.12523 0.435733 -0.341054 -1.12519 0.376402 -0.40559 -17.0467 4.42664 5.2007 -17.0021 5.59517 6.48191 -0.0 0.0 -0.0 7.23618 24.4707 12.6777 -16.8907 -27.608 62.5618 2.72591 -53.4683 1.37322 -24.3408 -1.45972 2.72502 -2.51729 28.6676 -2.39701 -0.0 0.0 -0.0 10.8718 3.07187 -21.6285 -28.5837 38.1534 -54.2327 0.400081 11.2103 -0.0392648 -41.2685 3.08707 -4.15027 7.33103 -26.8298 -70.1196 0.0 0.0 0.0 -6.70211 7.44562 -5.06724 -7.51228 0.235626 1.12801 27.6637 1.3638 -3.64715 -21.368 0.0 0.0 -0.0 0.0 -0.0 -3.19347 -3.89411 0.622111 4.95647 0.235605 0.723705 20.6214 28.9332 3.46685 -36.0229 0.0 0.0 0.0 0.0 0.0 
3546.87830788 741.616 -1501.97166836 5.62002926528 69.2368027206 -4.26626201094 -1.11674 0.3941 -0.444293 -1.11673 0.421573 -0.418316 -1.11993 0.506249 -0.31052 -1.11978 0.450856 -0.386576 -15.127 4.2827 3.35895 -15.1278 6.206 4.59494 -0.0 0.0 -0.0 6.50255 24.5256 11.646 -17.244 -27.7578 63.6487 2.58898 -52.0469 1.26421 -23.7986 -1.415 2.67185 -2.65263 28.7 -3.10869 -0.0 0.0 -0.0 10.8143 2.96353 -21.5011 -23.9324 38.7876 -54.7563 0.398476 11.1665 -0.0389534 -41.6992 3.13366 -4.18001 7.35538 -26.741 -70.6652 0.0 0.0 0.0 -7.13251 8.87929 -5.46349 -8.47876 0.255135 1.27503 25.801 -0.187187 -3.44684 -20.4805 0.0 0.0 -0.0 0.0 -0.0 -5.12456 -2.65405 0.79768 5.74071 0.278599 0.836277 20.8328 29.9783 3.54532 -34.6052 0.0 0.0 0.0 0.0 0.0 
3527.87560202 737.513 -1519.01101531 8.5875780359 71.5565898621 -7.02155043605 -1.22258 0.798414 -0.387819 -1.22287 0.821473 -0.336225 -1.22811 0.876936 -0.137269 -1.22714 0.844251 -0.274051 -13.7553 5.50324 1.53882 -13.8145 9.54644 3.17492 -0.0 0.0 -0.0 6.04057 25.3553 10.9441 -15.989 -24.8613 64.5896 2.15089 -46.81 0.931083 -22.6557 -1.3224 2.5584 -2.61613 28.5366 -2.99826 -0.0 0.0 -0.0 10.9518 2.43882 -21.7715 -17.8315 42.7909 -57.6285 0.266615 7.52388 -0.0175308 -44.3681 3.42723 -4.35644 7.29673 -26.9757 -69.3769 0.0 0.0 0.0 -6.99121 10.2479 -5.56981 -12.3905 0.308689 1.87276 28.1624 5.79628 -3.68862 -18.4542 0.0 0.0 -0.0 0.0 -0.0 -7.43556 -2.80888 -0.955654 6.03055 0.294879 0.877736 22.2861 30.0848 3.76468 -35.2936 0.0 0.0 0.0 0.0 0.0 
3516.4681437 736.059 -1529.46244332 15.9299664385 74.002494434 -13.877773628 -1.75865 0.85376 -0.190666 -1.75905 0.864163 -0.135948 -1.76154 0.871522 0.0755483 -1.76048 0.872515 -0.0630511 -10.7485 7.23824 -0.770654 -10.8262 14.1764 1.15692 -0.0 0.0 -0.0 5.25234 26.4502 9.8201 -13.1883 -18.9748 67.1156 1.84044 -42.3513 0.713012 -23.2679 -1.37172 2.6194 -2.61408 28.6227 -2.94186 -0.0 0.0 -0.0 11.0677 2.05169 -22.0 -12.9749 44.155 -60.6534 0.150489 4.26349 -0.00560165 -44.8803 3.48449 -4.38872 7.11577 -26.6495 -66.06 0.0 0.0 0.0 -6.56783 10.7525 -6.90975 -17.9065 0.314682 2.71873 34.6277 11.4205 -4.38446 -15.7006 0.0 0.0 -0.0 0.0 -0.0 -9.13418 -2.00377 -1.99468 4.11983 0.191446 0.602986 24.138 27.8913 3.92155 -34.7967 0.0 0.0 0.0 0.0 0.0 
